{"accessors" : [{"bufferView" : 0, "byteOffset" : 0, "componentType" : 5123, "count" : 192, "type" : "SCALAR", "max" : [67], "min" : [0]}, {"bufferView" : 1, "byteOffset" : 0, "componentType" : 5126, "count" : 68, "type" : "VEC3", "max" : [5, 0, 7.50000047683716], "min" : [-1.43114686768087E-14, -0.899999976158142, 0]}, {"bufferView" : 1, "byteOffset" : 12, "componentType" : 5126, "count" : 68, "type" : "VEC3", "max" : [1.00000441074371, 1.00000441074371, 1.00000441074371], "min" : [-1.00000441074371, -1.00000441074371, -1.00000441074371]}], "asset" : {"generator" : "Aspose.3D 20.2.1", "version" : "2.0"}, "buffers" : [{"uri" : "src/components/objects/Flower/letter.bin", "byteLength" : 2024}], "bufferViews" : [{"buffer" : 0, "byteOffset" : 0, "byteLength" : 384, "target" : 34963}, {"buffer" : 0, "byteOffset" : 388, "byteLength" : 1632, "byteStride" : 24, "target" : 34962}], "meshes" : [{"primitives" : [{"attributes" : {"POSITION" : 1, "NORMAL" : 2}, "indices" : 0, "mode" : 4}]}], "nodes" : [{"mesh" : 0, "name" : ""}], "scene" : 0, "scenes" : [{"nodes" : [0]}]}